{"title":"BigWetButts - Bree Olson","uid":11101357,"size":155641066,"categoryP":"porn","categoryS":"movie_clips","magnet":"?xt=urn:btih:0487780d7d1f644fb311d634764fd0f3c9221b94&amp;dn=BigWetButts+-+Bree+Olson&amp;tr=udp%3A%2F%2Ftracker.openbittorrent.com%3A80&amp;tr=udp%3A%2F%2Fopen.demonii.com%3A1337&amp;tr=udp%3A%2F%2Ftracker.coppersurfer.tk%3A6969&amp;tr=udp%3A%2F%2Fexodus.desync.com%3A6969","seeders":0,"leechers":1,"uploader":"supertongo","files":1,"time":1411675148,"description":"\nBigWetButts  -  Bree Olson video in ipod/psp/mobile compatible resolution\n\n\n:::Media info:::\n\nGeneral\nFormat                         : MPEG-4\nFormat profile                 : Base Media / Version 2\nCodec ID                       : mp42\nFile size                      : 148 MiB\nDuration                       : 41mn 8s\nOverall bit rate mode          : Variable\nOverall bit rate               : 504 Kbps\nEncoded date                   : UTC 2010-10-29 23:07:05\nTagged date                    : UTC 2010-10-29 23:28:13\n\nVideo\nID                             : 1\nFormat                         : AVC\nFormat/Info                    : Advanced Video Codec\nFormat profile                 : &lt;a class=&quot;__cf_email__&quot; href=&quot;/cdn-cgi/l/email-protection&quot; data-cfemail=&quot;7d3f1c0e18111413183d314e534d&quot;&gt;[email&amp;#160;protected]&lt;/a&gt;&lt;script data-cfhash='f9e31' type=&quot;text/javascript&quot;&gt;\n/* &lt;![CDATA[ */!function(){try{var t=&quot;currentScript&quot;in document?document.currentScript:function(){for(var t=document.getElementsByTagName(&quot;script&quot;),e=t.length;e--;)if(t[e].getAttribute(&quot;data-cfhash&quot;))return t[e]}();if(t&amp;&amp;t.previousSibling){var e,r,n,i,c=t.previousSibling,a=c.getAttribute(&quot;data-cfemail&quot;);if(a){for(e=&quot;&quot;,r=parseInt(a.substr(0,2),16),n=2;a.length-n;n+=2)i=parseInt(a.substr(n,2),16)^r,e+=String.fromCharCode(i);e=document.createTextNode(e),c.parentNode.replaceChild(e,c)}t.parentNode.removeChild(t);}}catch(u){}}()/* ]]&gt; */&lt;/script&gt;\nFormat settings, CABAC         : No\nFormat settings, ReFrames      : 2 frames\nCodec ID                       : avc1\nCodec ID/Info                  : Advanced Video Coding\nDuration                       : 41mn 8s\nDuration_FirstFrame            : 67ms\nBit rate                       : 377 Kbps\nWidth                          : 480 pixels\nHeight                         : 272 pixels\nDisplay aspect ratio           : 16:9\nFrame rate mode                : Constant\nFrame rate                     : 29.970 fps\nColor space                    : YUV\nChroma subsampling             : 4:2:0\nBit depth                      : 8 bits\nScan type                      : Progressive\nBits/(Pixel*Frame)             : 0.096\nStream size                    : 111 MiB (75%)\n\nAudio\nID                             : 2\nFormat                         : AAC\nFormat/Info                    : Advanced Audio Codec\nFormat profile                 : LC\nCodec ID                       : 40\nDuration                       : 41mn 8s\nBit rate mode                  : Variable\nBit rate                       : 98.0 Kbps\nMaximum bit rate               : 240 Kbps\nChannel(s)                     : 2 channels\nChannel positions              : Front: L R\nSampling rate                  : 48.0 KHz\nCompression mode               : Lossy\nStream size                    : 28.8 MiB (19%)\nLanguage                       : English\n\n\n\n &lt;a href=&quot;\nhttp://bayimg.com/OaapjaagJ&quot; rel=&quot;nofollow&quot; target=&quot;_NEW&quot;&gt;\nhttp://bayimg.com/OaapjaagJ&lt;/a&gt;","torrent":{"xt":"urn:btih:0487780d7d1f644fb311d634764fd0f3c9221b94","amp;dn":"BigWetButts+-+Bree+Olson","amp;tr":["udp%3A%2F%2Ftracker.openbittorrent.com%3A80","udp%3A%2F%2Fopen.demonii.com%3A1337","udp%3A%2F%2Ftracker.coppersurfer.tk%3A6969","udp%3A%2F%2Fexodus.desync.com%3A6969"],"infoHash":"0487780d7d1f644fb311d634764fd0f3c9221b94","infoHashBuffer":{"type":"Buffer","data":[4,135,120,13,125,31,100,79,179,17,214,52,118,79,208,243,201,34,27,148]},"announce":[],"urlList":[]}}